# This file uses centimeters as units for non-parametric coordinates.

mtllib HeadNoNose.mtl
g default
v 2.297665 -13.951584 14.885660
v 5.749094 31.193091 19.523323
v 6.350770 38.181878 -27.449003
v 2.715459 -9.875893 -22.138077
v -15.805705 -20.960619 34.761134
v -15.992270 -9.875893 -26.362490
v -15.992270 44.000857 -30.408782
v -15.992249 34.381974 25.996865
v -15.992249 49.419673 4.279005
v 8.934370 40.351098 -1.069296
v 7.929102 -8.480228 -4.914515
v -15.992249 44.000857 19.049276
v 7.972025 36.868127 10.663849
v 6.039947 -10.022672 4.157483
v -16.001265 -25.849775 14.601085
v -15.992270 17.930571 30.641427
v 7.031553 17.975681 11.399142
v 10.318240 25.205174 2.871371
v 10.070352 27.056314 -8.097762
v 7.502908 27.639086 -29.486424
v -15.992270 26.878248 -38.766785
v -15.992270 15.206451 31.198226
v 7.765827 7.555376 11.396457
v 8.772533 9.005191 0.844487
v 9.669141 12.094545 -9.111079
v 7.113985 12.094545 -28.886172
v -15.992270 12.094545 -37.926475
v -15.992270 11.940659 33.527193
v 4.502039 -3.101406 12.006354
v 7.312325 -1.925623 2.458297
v 7.317182 -1.925623 -4.914515
v 4.193083 0.625714 -22.167333
v -15.992270 -1.925623 -34.595764
v -6.623402 -20.107494 32.348292
v -3.913392 -24.663817 5.361264
v 4.592574 -18.942808 -0.319789
v -1.190764 -9.875893 -25.026031
v 0.900575 -1.925623 -31.103609
v -0.007661 12.094545 -36.836731
v -0.007661 26.878248 -36.285463
v -0.007661 41.580873 -29.614008
v 1.820619 46.999689 3.082904
v 1.684868 41.580873 16.150443
v -0.106001 33.483743 24.889399
v -11.152563 -20.875879 34.155366
v -11.613047 -25.504238 12.942202
v -7.508923 -9.875893 -26.219012
v -7.247340 -1.925623 -33.473930
v -7.247340 12.094545 -36.836731
v -7.247340 26.878248 -38.267578
v -7.247340 42.604043 -30.382610
v -7.247340 48.022859 4.279005
v -7.247340 42.604043 19.072614
v -7.273594 34.270920 26.265309
v -15.992270 -19.086164 -24.607912
v -8.658941 -18.727985 -24.524417
v 6.094088 -17.913826 -12.108349
v 7.113985 -9.875893 -14.559014
v 7.854220 0.647021 -10.890917
v 9.621540 12.094545 -19.523110
v 11.199461 28.424096 -19.961446
v 8.836782 41.132989 -18.539653
v -0.007661 46.405077 -15.748225
v -7.247340 47.428247 -15.748225
v -15.992270 48.825055 -15.748225
v -2.280482 23.213862 28.815515
v 4.067895 16.368360 16.127151
v 2.050318 21.804413 23.226831
v -4.036817 10.316975 27.501981
v 2.994982 9.439822 21.219141
v -4.091238 5.965849 30.200051
v 2.324616 -0.700728 23.286036
v -6.594363 -13.252451 31.018659
v -0.487271 -6.484427 23.883326
v -10.944023 22.760709 30.775147
v -13.421689 17.812066 29.865017
v -12.142513 14.182204 31.006144
v -11.763347 10.926601 33.021528
v -10.975393 -13.613177 32.296548
v -15.992260 22.699275 31.250870
v -15.631862 -13.152939 32.966733
v -6.281172 18.843006 24.314388
v -1.629966 16.214272 19.220789
v -4.028715 18.343749 21.299618
v -6.068435 14.666470 24.122238
v -3.296393 14.969022 20.693080
v -9.420750 17.720122 25.150876
v -10.710836 16.714007 24.945192
v -10.149297 15.294600 25.478971
v -15.838222 1.215080 33.466411
v -9.692090 1.970542 32.868226
v -4.348402 0.664275 30.398004
v -11.425282 -2.458609 32.584579
v -12.046797 -9.105999 33.740425
v -7.224321 -3.842848 30.267316
v -8.634640 -9.143661 32.910159
v -4.080600 -6.507243 26.809432
v -15.776310 -2.129593 33.441980
v -15.880096 -9.129894 34.139716
v -12.881725 -4.629634 32.348520
v -13.152886 -6.801326 33.779424
v -10.013730 -4.999841 30.309741
v -11.031621 -6.740845 33.107657
v -7.884465 -5.821049 28.392110
v -15.749283 -4.723068 33.431317
v -16.035583 -6.699997 34.150969
v -2.596486 -17.390888 23.616976
v -3.357949 -12.159310 28.214283
v -5.740153 -8.616649 29.877522
v -8.990749 -6.418958 30.944951
v -7.617420 -24.935667 10.458741
v 1.762666 -18.204485 -18.159536
v -2.089768 -18.402246 -22.478277
vt 0.625000 0.000000
vt 0.625000 0.250000
vt 0.625000 0.500000
vt 0.625000 0.750000
vt 0.625000 1.000000
vt 0.875000 0.000000
vt 0.875000 0.250000
vt 0.491408 0.000000
vt 0.491408 1.000000
vt 0.491408 0.750000
vt 0.491408 0.500000
vt 0.491408 0.250000
vt 0.491408 0.433433
vt 0.625000 0.433433
vt 0.808433 0.250000
vt 0.625000 0.816567
vt 0.808433 0.000000
vt 0.491408 0.331900
vt 0.625000 0.331900
vt 0.706900 0.250000
vt 0.625000 0.918100
vt 0.706900 0.000000
vt 0.491408 0.918100
vt 0.491408 0.191685
vt 0.625000 0.191685
vt 0.706900 0.191685
vt 0.808433 0.191685
vt 0.625000 0.558315
vt 0.875000 0.191685
vt 0.491408 0.558315
vt 0.491408 0.101948
vt 0.625000 0.101948
vt 0.706900 0.101948
vt 0.808433 0.101948
vt 0.625000 0.648052
vt 0.875000 0.101948
vt 0.491408 0.648052
vt 0.491408 0.036891
vt 0.625000 0.036891
vt 0.706900 0.036891
vt 0.808433 0.036891
vt 0.625000 0.713109
vt 0.875000 0.036891
vt 0.491408 0.713109
vt 0.585759 0.000000
vt 0.585759 1.000000
vt 0.585759 0.918100
vt 0.585759 0.816567
vt 0.585759 0.750000
vt 0.585759 0.713109
vt 0.585759 0.648052
vt 0.585759 0.558315
vt 0.585759 0.500000
vt 0.585759 0.433433
vt 0.585759 0.331900
vt 0.585759 0.250000
vt 0.585759 0.101948
vt 0.585759 0.036891
vt 0.545867 0.000000
vt 0.545867 1.000000
vt 0.545867 0.918100
vt 0.545867 0.750000
vt 0.545867 0.713109
vt 0.545867 0.648052
vt 0.545867 0.558315
vt 0.545867 0.500000
vt 0.545867 0.433433
vt 0.545867 0.331900
vt 0.545867 0.250000
vt 0.545867 0.191685
vt 0.545867 0.101948
vt 0.545867 0.036891
vt 0.491408 0.776000
vt 0.545867 0.776000
vt 0.585759 0.776000
vt 0.625000 0.776000
vt 0.849000 0.000000
vt 0.849000 0.036891
vt 0.849000 0.101948
vt 0.849000 0.191685
vt 0.625000 0.474000
vt 0.849000 0.250000
vt 0.585759 0.474000
vt 0.545867 0.474000
vt 0.491408 0.474000
vt 0.625000 0.191685
vt 0.625000 0.250000
vt 0.585759 0.250000
vt 0.625000 0.101948
vt 0.625000 0.036891
vt 0.585759 0.000000
vt 0.625000 0.000000
vt 0.545867 0.250000
vt 0.545867 0.000000
vt 0.491408 0.215011
vt 0.491408 0.025824
vt 0.625000 0.191685
vt 0.625000 0.250000
vt 0.585759 0.250000
vt 0.585759 0.101948
vt 0.625000 0.101948
vt 0.545867 0.250000
vt 0.545867 0.191685
vt 0.545867 0.101948
vt 0.491408 0.032161
vt 0.545867 0.023141
vt 0.585759 0.027970
vt 0.545867 0.023141
vt 0.545867 0.000000
vt 0.585759 0.027970
vt 0.585759 0.000000
vt 0.625000 0.000000
vt 0.491408 0.030260
vt 0.491408 0.027598
vt 0.545867 0.023141
vt 0.545867 0.000000
vt 0.585759 0.027970
vt 0.585759 0.000000
vt 0.625000 0.000000
vt 0.491408 0.029430
vt 0.491408 0.028474
vt 0.605379 0.000000
vt 0.605379 1.000000
vt 0.597731 0.000000
vt 0.595754 0.000000
vt 0.599491 0.000000
vt 0.562704 0.918100
vt 0.571517 0.776000
vt 0.561827 0.776000
vn 0.540976 0.825802 -0.159358
vn 0.357781 0.924070 -0.134487
vn 0.426771 0.894158 0.135451
vn 0.640529 0.765541 0.060571
vn 0.652652 0.125591 -0.747176
vn 0.445572 0.165577 -0.879801
vn 0.359538 0.374591 -0.854643
vn 0.557678 0.293321 -0.776504
vn 0.951182 -0.263341 0.160948
vn 0.896127 -0.314651 0.312972
vn 0.956433 -0.252130 -0.147194
vn 0.935308 -0.266197 -0.233107
vn 0.992520 0.110916 0.051015
vn 0.998749 0.030262 0.039811
vn 0.991849 0.041337 -0.120529
vn 0.986807 0.143228 -0.075482
vn 0.480425 0.741964 0.467633
vn 0.733520 0.591033 0.335602
vn 0.980955 0.017899 0.193409
vn 0.992520 0.003475 0.122029
vn 0.834238 -0.474010 0.281710
vn 0.778764 -0.597026 0.192580
vn 0.448251 0.602109 0.660709
vn 0.725059 0.452305 0.519335
vn 0.953372 -0.044044 0.298566
vn 0.908589 -0.059554 0.413423
vn 0.694784 -0.698330 0.172076
vn 0.362975 -0.909925 0.200714
vn 0.534214 -0.822172 0.196593
vn 0.959721 -0.089179 0.266425
vn 0.990364 -0.103924 0.091532
vn 0.995332 -0.093434 0.024182
vn 0.971481 -0.174159 -0.160916
vn 0.787405 -0.157895 -0.595871
vn 0.512090 -0.160385 -0.843825
vn 0.847912 0.113992 0.517736
vn 0.644816 0.430250 0.631742
vn 0.625614 0.136240 0.768144
vn 0.878927 -0.105319 0.465183
vn 0.947260 -0.156223 0.279807
vn 0.980806 -0.135238 0.140465
vn 0.995525 -0.090557 0.026990
vn 0.979118 -0.148693 -0.138633
vn 0.835238 -0.299783 -0.460986
vn 0.581419 -0.404477 -0.705939
vn 0.579675 -0.140676 0.802612
vn 0.868838 -0.183536 0.459822
vn 0.926845 -0.172850 0.333288
vn 0.967111 -0.088100 0.238611
vn 0.998935 -0.016940 0.042911
vn 0.953029 -0.022860 -0.302016
vn 0.548863 -0.526100 -0.649591
vn 0.840367 -0.309752 -0.444790
vn 0.112809 -0.675887 -0.728321
vn 0.125600 -0.446198 -0.886077
vn 0.122836 -0.161795 -0.979150
vn 0.118414 0.216057 -0.969173
vn 0.118431 0.435398 -0.892414
vn 0.146012 0.977451 -0.152545
vn 0.156447 0.976278 0.149681
vn 0.164054 0.819588 0.548964
vn 0.147816 0.641173 0.753025
vn 0.493842 0.551196 0.672535
vn 0.317680 0.216274 0.923204
vn 0.287151 -0.033049 0.957315
vn 0.101634 -0.969851 0.221493
vn 0.101634 -0.969851 0.221493
vn 0.194732 -0.958495 0.208246
vn 0.165694 -0.962987 0.212606
vn 0.052506 -0.697238 -0.714914
vn 0.097039 -0.436623 -0.894396
vn 0.106071 -0.151854 -0.982695
vn 0.077592 0.215683 -0.973376
vn 0.062206 0.442394 -0.894661
vn 0.156121 0.976164 -0.150767
vn 0.156123 0.978683 0.133436
vn 0.109437 0.837138 0.535932
vn 0.040265 0.618233 0.784963
vn 0.530516 -0.093366 0.842517
vn 0.165631 0.134520 0.976970
vn 0.042931 0.286381 0.957154
vn 0.174666 -0.025345 0.984301
vn 0.203831 0.438577 0.875273
vn 0.139116 0.158278 0.977545
vn 0.116347 -0.020505 0.992997
vn 0.129014 -0.223796 -0.966059
vn 0.109509 -0.217786 -0.969833
vn 0.018363 -0.188666 -0.981870
vn 0.018363 -0.188666 -0.981870
vn 0.429880 -0.300207 -0.851516
vn 0.439164 -0.302097 -0.846093
vn 0.731156 -0.319484 -0.602777
vn 0.759731 -0.312165 -0.570405
vn 0.917561 -0.234437 -0.321123
vn 0.919146 -0.028966 -0.392851
vn 0.938696 -0.175442 -0.296767
vn 0.945084 0.028518 -0.325580
vn 0.918472 0.190409 -0.346631
vn 0.291303 0.898643 -0.327999
vn 0.457051 0.825299 -0.331642
vn 0.149898 0.937947 -0.312708
vn 0.150448 0.939000 -0.309263
vn 0.745241 -0.262761 0.612840
vn 0.845799 -0.058750 0.530258
vn 0.519244 0.172385 0.837060
vn 0.442017 -0.059295 0.895045
vn 0.594997 0.079183 0.799818
vn 0.888934 -0.162664 0.428179
vn 0.856446 -0.077589 0.510373
vn 0.661681 -0.002184 0.749782
vn 0.131433 0.338245 0.931835
vn 0.296698 0.206253 0.932432
vn 0.219886 0.060760 0.973631
vn 0.015279 0.385903 0.922413
vn 0.132309 0.044384 0.990214
vn 0.141248 0.230117 0.962858
vn 0.141248 0.230117 0.962858
vn 0.321956 -0.766632 0.555535
vn 0.409227 -0.116165 0.905008
vn 0.294384 -0.779814 0.552475
vn 0.498480 0.613028 0.612955
vn 0.546259 0.662751 0.512214
vn 0.817741 -0.161407 0.552492
vn 0.392472 -0.680025 0.619299
vn 0.579444 0.680724 0.448173
vn 0.463133 0.756433 0.461863
vn 0.283348 -0.216666 0.934221
vn 0.172572 -0.085485 0.981280
vn 0.181079 -0.170091 0.968648
vn 0.109787 -0.183203 0.976926
vn 0.438677 -0.377132 0.815680
vn 0.473722 0.042111 0.879667
vn 0.638999 -0.076856 0.765359
vn 0.650807 0.302655 0.696312
vn 0.299484 -0.272627 0.914322
vn 0.253675 -0.125771 0.959078
vn 0.159282 0.058443 0.985502
vn 0.114233 0.019896 0.993255
vn 0.323420 -0.562527 0.760896
vn 0.404136 0.315312 0.858634
vn 0.498803 -0.002075 0.866713
vn 0.544641 0.576864 0.608764
vn 0.800748 -0.583739 0.134356
s 1
g pCube2
usemtl initialShadingGroup
f 62/81/1 63/83/2 42/54/3 10/14/4
s 2
f 20/28/5 40/52/6 41/53/7 3/3/8
s 3
f 11/16/9 36/48/10 57/75/11 58/76/12
s 4
f 10/15/13 19/27/14 61/80/15 62/82/16
s 1
f 10/14/4 42/54/3 43/55/17 13/19/18
s 4
f 13/20/19 18/26/20 19/27/14 10/15/13
s 3
f 14/21/21 35/47/22 36/48/10 11/16/9
s 1
f 13/19/18 43/55/17 44/56/23 2/2/24
s 4
f 17/25/25 18/26/20 13/20/19 2/2/26
s 3
f 35/47/22 107/123/27 34/46/28 111/127/29
s 4
f 23/32/30 24/33/31 18/26/20 17/25/25
f 19/27/14 18/26/20 24/33/31 25/34/32
f 60/79/33 61/80/15 19/27/14 25/34/32
s 2
f 26/35/34 39/51/35 40/52/6 20/28/5
s 4
f 70/89/36 69/57/37 71/58/38 72/90/39
f 29/39/40 30/40/41 24/33/31 23/32/30
f 25/34/32 24/33/31 30/40/41 31/41/42
f 59/78/43 60/79/33 25/34/32 31/41/42
s 2
f 32/42/44 38/50/45 39/51/35 26/35/34
s 4
f 72/90/39 71/58/38 92/107/46 74/92/47
f 1/1/48 14/22/49 30/40/41 29/39/40
f 31/41/42 30/40/41 14/22/49 11/17/50
f 58/77/51 59/78/43 31/41/42 11/17/50
s 2
f 37/49/52 38/50/45 32/42/44 4/4/53
f 47/62/54 48/63/55 38/50/45 37/49/52
f 39/51/35 38/50/45 48/63/55 49/64/56
f 40/52/6 39/51/35 49/64/56 50/65/57
f 41/53/7 40/52/6 50/65/57 51/66/58
s 1
f 63/83/2 64/84/59 52/67/60 42/54/3
f 43/55/17 42/54/3 52/67/60 53/68/61
f 44/56/23 43/55/17 53/68/61 54/69/62
s 4
f 71/58/38 69/57/37 77/71/63 78/72/64
f 91/106/65 92/107/46 71/58/38 78/72/64
s 3
f 5/9/66 15/23/67 46/61/68 45/60/69
s 2
f 6/10/70 33/44/71 48/63/55 47/62/54
f 49/64/56 48/63/55 33/44/71 27/37/72
f 50/65/57 49/64/56 27/37/72 21/30/73
f 51/66/58 50/65/57 21/30/73 7/11/74
s 1
f 64/84/59 65/85/75 9/13/76 52/67/60
f 53/68/61 52/67/60 9/13/76 12/18/77
f 54/69/62 53/68/61 12/18/77 8/12/78
s 4
f 76/70/79 75/93/80 80/95/81 16/24/82
f 77/71/63 76/70/79 16/24/82 22/31/83
f 78/72/64 77/71/63 22/31/83 28/38/84
f 90/105/85 91/106/65 78/72/64 28/38/84
s 3
f 47/62/86 56/74/87 55/73/88 6/10/89
f 37/49/90 113/129/91 56/74/87 47/62/86
f 37/49/90 4/4/92 112/128/93 113/129/91
s 4
f 32/43/94 59/78/43 58/77/51 4/6/95
f 26/36/96 60/79/33 59/78/43 32/43/94
f 20/29/97 61/80/15 60/79/33 26/36/96
f 62/82/16 61/80/15 20/29/97 3/7/98
s 1
f 41/53/99 63/83/2 62/81/1 3/3/100
f 51/66/101 64/84/59 63/83/2 41/53/99
f 7/11/102 65/85/75 64/84/59 51/66/101
s 4
f 17/25/25 2/2/26 68/87/103 67/86/104
f 2/2/26 44/56/105 66/88/106 68/87/103
f 23/32/30 17/25/25 67/86/104 70/89/36
f 29/39/40 23/32/30 70/89/36 72/90/39
f 34/45/107 107/122/108 108/124/109 73/91/110
f 1/1/48 29/39/40 72/90/39 74/92/47
f 44/56/105 54/69/111 75/93/80 66/88/106
f 45/59/112 34/45/107 73/91/110 79/94/113
f 75/93/80 54/69/111 8/12/114 80/95/81
f 79/94/113 81/96/115 5/8/116 45/59/117
f 67/86/104 68/87/103 84/98/118 83/97/119
f 68/87/103 66/88/106 82/99/120 84/98/118
f 69/57/37 70/89/36 86/101/121 85/100/122
f 70/89/36 67/86/104 83/97/119 86/101/121
f 75/93/80 76/70/79 88/103/123 87/102/124
f 66/88/106 75/93/80 87/102/124 82/99/120
f 76/70/79 77/71/63 89/104/125 88/103/123
f 77/71/63 69/57/37 85/100/126 89/104/125
f 93/108/127 91/106/65 90/105/85 98/113/128
f 94/109/129 99/114/130 81/96/115 79/94/113
f 92/107/46 91/106/65 93/108/127 95/110/131
f 79/94/113 73/91/110 96/111/132 94/109/129
f 74/92/47 92/107/46 95/110/131 97/112/133
f 73/91/110 108/124/109 109/125/134 96/111/132
f 100/115/135 93/108/127 98/113/128 105/120/136
f 101/116/137 106/121/138 99/114/130 94/109/129
f 95/110/131 93/108/127 100/115/135 102/117/139
f 94/109/129 96/111/132 103/118/140 101/116/137
f 97/112/133 95/110/131 102/117/139 104/119/141
f 96/111/132 109/125/134 110/126/142 103/118/140
s 3
f 107/123/27 35/47/22 14/21/21 1/5/143
s 4
f 108/124/109 107/122/108 1/1/48 74/92/47
f 109/125/134 108/124/109 74/92/47 97/112/133
f 110/126/142 109/125/134 97/112/133 104/119/141
s 3
f 45/60/69 46/61/68 111/127/29 34/46/28
f 4/4/92 58/76/12 57/75/11 112/128/93
